<mxfile host="app.diagrams.net" modified="2024-03-29T05:44:51.787Z" agent="Mozilla/5.0 (Macintosh; Intel Mac OS X 10_15_7) AppleWebKit/605.1.15 (KHTML, like Gecko) Version/17.3 Safari/605.1.15" version="24.0.7" etag="_LDmYYr8czwly2NFb0vB" type="github">
  <diagram name="Page-1" id="AqzUwyhIW90uuoSA0zIm">
    <mxGraphModel>
      <root>
        <mxCell id="0" />
        <mxCell id="1" parent="0" />
      </root>
    </mxGraphModel>
  </diagram>
</mxfile>
